<?xml version="1.0" encoding="UTF-8" standalone="no"?>
<!-- Created with Inkscape (http://www.inkscape.org/) -->

<svg
   xmlns:dc="http://purl.org/dc/elements/1.1/"
   xmlns:cc="http://creativecommons.org/ns#"
   xmlns:rdf="http://www.w3.org/1999/02/22-rdf-syntax-ns#"
   xmlns:svg="http://www.w3.org/2000/svg"
   xmlns="http://www.w3.org/2000/svg"
   xmlns:xlink="http://www.w3.org/1999/xlink"
   xmlns:sodipodi="http://sodipodi.sourceforge.net/DTD/sodipodi-0.dtd"
   xmlns:inkscape="http://www.inkscape.org/namespaces/inkscape"
   width="1785.28"
   height="484.13"
   id="svg45629"
   version="1.1"
   inkscape:version="0.48.1 "
   sodipodi:docname="Neues Dokument 3">
  <defs
     id="defs45631">
    <linearGradient
       x1="0"
       y1="0"
       x2="1"
       y2="0"
       gradientUnits="userSpaceOnUse"
       gradientTransform="matrix(0.32969011,0.00112137,0.00112137,-0.32969011,121.93144,28.860683)"
       spreadMethod="pad"
       id="linearGradient41906">
      <stop
         style="stop-opacity:1;stop-color:#37489d"
         offset="0"
         id="stop41908" />
      <stop
         style="stop-opacity:1;stop-color:#009ad9"
         offset="0.374237"
         id="stop41910" />
      <stop
         style="stop-opacity:1;stop-color:#37489d"
         offset="1"
         id="stop41912" />
    </linearGradient>
    <linearGradient
       x1="0"
       y1="0"
       x2="1"
       y2="0"
       gradientUnits="userSpaceOnUse"
       gradientTransform="matrix(0.35281624,0,0,-0.35281624,121.92463,28.814156)"
       spreadMethod="pad"
       id="linearGradient41884">
      <stop
         style="stop-opacity:1;stop-color:#37489d"
         offset="0"
         id="stop41886" />
      <stop
         style="stop-opacity:1;stop-color:#009ad9"
         offset="0.374237"
         id="stop41888" />
      <stop
         style="stop-opacity:1;stop-color:#37489d"
         offset="1"
         id="stop41890" />
    </linearGradient>
    <linearGradient
       x1="0"
       y1="0"
       x2="1"
       y2="0"
       gradientUnits="userSpaceOnUse"
       gradientTransform="matrix(0.34752928,0.00118204,0.00118204,-0.34752928,117.41338,30.777253)"
       spreadMethod="pad"
       id="linearGradient41906-4">
      <stop
         style="stop-opacity:1;stop-color:#37489d"
         offset="0"
         id="stop41908-0" />
      <stop
         style="stop-opacity:1;stop-color:#009ad9"
         offset="0.374237"
         id="stop41910-9" />
      <stop
         style="stop-opacity:1;stop-color:#37489d"
         offset="1"
         id="stop41912-4" />
    </linearGradient>
    <linearGradient
       x1="0"
       y1="0"
       x2="1"
       y2="0"
       gradientUnits="userSpaceOnUse"
       gradientTransform="matrix(0.37190674,0,0,-0.37190674,117.4062,30.728209)"
       spreadMethod="pad"
       id="linearGradient41884-8">
      <stop
         style="stop-opacity:1;stop-color:#37489d"
         offset="0"
         id="stop41886-8" />
      <stop
         style="stop-opacity:1;stop-color:#009ad9"
         offset="0.374237"
         id="stop41888-2" />
      <stop
         style="stop-opacity:1;stop-color:#37489d"
         offset="1"
         id="stop41890-4" />
    </linearGradient>
    <linearGradient
       x1="0"
       y1="0"
       x2="1"
       y2="0"
       gradientUnits="userSpaceOnUse"
       gradientTransform="matrix(20.831055,0,0,-20.831055,119.45474,36.810944)"
       spreadMethod="pad"
       id="linearGradient41884-1">
      <stop
         style="stop-opacity:1;stop-color:#37489d"
         offset="0"
         id="stop41886-5" />
      <stop
         style="stop-opacity:1;stop-color:#009ad9"
         offset="0.374237"
         id="stop41888-27" />
      <stop
         style="stop-opacity:1;stop-color:#37489d"
         offset="1"
         id="stop41890-6" />
    </linearGradient>
    <radialGradient
       inkscape:collect="always"
       xlink:href="#linearGradient45785"
       id="radialGradient45783"
       cx="-378.59167"
       cy="97.428909"
       fx="-378.59167"
       fy="97.428909"
       r="10.4165"
       gradientTransform="matrix(-1.7450194e-8,-0.02051486,0.24685896,1.4195625e-7,117.44422,32.40751)"
       gradientUnits="userSpaceOnUse" />
    <linearGradient
       inkscape:collect="always"
       id="linearGradient45785">
      <stop
         style="stop-color:#e33615;stop-opacity:1;"
         offset="0"
         id="stop45787" />
      <stop
         style="stop-color:#e33615;stop-opacity:0;"
         offset="1"
         id="stop45789" />
    </linearGradient>
    <linearGradient
       y2="0"
       x2="1"
       y1="0"
       x1="0"
       spreadMethod="pad"
       gradientTransform="matrix(26.038819,0,0,26.038819,149.31842,1016.9788)"
       gradientUnits="userSpaceOnUse"
       id="linearGradient45810"
       xlink:href="#linearGradient41884-1"
       inkscape:collect="always" />
    <radialGradient
       r="10.4165"
       fy="97.428909"
       fx="-378.59167"
       cy="97.428909"
       cx="-378.59167"
       gradientTransform="matrix(-2.1812743e-8,0.02564357,0.3085737,-1.7744531e-7,146.80527,1022.4831)"
       gradientUnits="userSpaceOnUse"
       id="radialGradient45812"
       xlink:href="#linearGradient45785"
       inkscape:collect="always" />
    <linearGradient
       inkscape:collect="always"
       xlink:href="#linearGradient41884-1"
       id="linearGradient45868"
       gradientUnits="userSpaceOnUse"
       gradientTransform="matrix(26.038819,0,0,26.038819,149.31848,1016.9789)"
       spreadMethod="pad"
       x1="0"
       y1="0"
       x2="1"
       y2="0" />
    <radialGradient
       inkscape:collect="always"
       xlink:href="#linearGradient41884-1"
       id="radialGradient45870"
       gradientUnits="userSpaceOnUse"
       gradientTransform="matrix(1.9966985,0.00564702,-2.8249202e-4,0.09988484,-282.4036,243.39964)"
       cx="283.40167"
       cy="220.97662"
       fx="283.40167"
       fy="220.97662"
       r="724.65973" />
  </defs>
  <sodipodi:namedview
     id="base"
     pagecolor="#ffffff"
     bordercolor="#666666"
     borderopacity="1.0"
     inkscape:pageopacity="0.0"
     inkscape:pageshadow="2"
     inkscape:zoom="0.88274838"
     inkscape:cx="892.64004"
     inkscape:cy="242.065"
     inkscape:document-units="px"
     inkscape:current-layer="layer1"
     showgrid="false"
     fit-margin-top="0"
     fit-margin-left="0"
     fit-margin-right="0"
     fit-margin-bottom="0"
     inkscape:window-width="1680"
     inkscape:window-height="990"
     inkscape:window-x="-4"
     inkscape:window-y="-4"
     inkscape:window-maximized="1" />
  <metadata
     id="metadata45634">
    <rdf:RDF>
      <cc:Work
         rdf:about="">
        <dc:format>image/svg+xml</dc:format>
        <dc:type
           rdf:resource="http://purl.org/dc/dcmitype/StillImage" />
        <dc:title></dc:title>
      </cc:Work>
    </rdf:RDF>
  </metadata>
  <g
     inkscape:label="Ebene 1"
     inkscape:groupmode="layer"
     id="layer1"
     transform="translate(-976.56311,-13.585175)">
    <g
       id="g41780"
       transform="matrix(89.38148,0,0,-89.38148,2746.8399,456.71382)">
      <path
         inkscape:connector-curvature="0"
         d="m 0,0 c 0,-0.287 -0.263,-0.305 -0.263,-0.305 l -0.216,0 -0.082,0 -16.062,0 c -1.916,0 -2.619,1.014 -2.874,1.67 -0.122,0.317 -0.141,0.554 -0.141,0.554 l 0,0.319 0,2.262 c 0,0.287 0.263,0.304 0.263,0.304 l 18.184,0 0.734,0 0.194,0 C -0.263,4.804 0,4.787 0,4.5 L 0,0.181 0,0 z"
         style="fill:#ffffff;fill-opacity:1;fill-rule:nonzero;stroke:none"
         id="path41782" />
    </g>
    <g
       id="g41784"
       transform="matrix(89.38148,0,0,-89.38148,2746.8399,456.71382)">
      <path
         inkscape:connector-curvature="0"
         d="m 0,0 c 0,-0.287 -0.263,-0.305 -0.263,-0.305 l -0.216,0 -0.082,0 -16.062,0 c -1.916,0 -2.619,1.014 -2.874,1.67 -0.122,0.317 -0.141,0.554 -0.141,0.554 l 0,0.319 0,2.262 c 0,0.287 0.263,0.304 0.263,0.304 l 18.184,0 0.734,0 0.194,0 C -0.263,4.804 0,4.787 0,4.5 L 0,0.181 0,0 z"
         style="fill:none;stroke:#ffffff;stroke-width:0.00678272;stroke-linecap:butt;stroke-linejoin:miter;stroke-miterlimit:4;stroke-opacity:1;stroke-dasharray:none"
         id="path41786" />
    </g>
    <g
       id="g41788"
       transform="matrix(89.38148,0,0,-89.38148,1321.5807,86.710247)">
      <path
         inkscape:connector-curvature="0"
         d="M 0,0 -0.317,-2.139 -0.618,0 -0.913,0 -1.226,-2.139 c 0,0 -0.259,1.85 -0.276,1.947 C -1.52,-0.095 -1.538,0 -1.703,0 l -0.483,0 0,-0.063 c 0.163,0 0.251,-0.109 0.274,-0.295 l 0.41,-2.874 0.318,0 0.294,2.139 0.262,-2.139 0.335,0 0.423,2.864 c 0.046,0.218 0.099,0.305 0.267,0.305 L 0.397,0 0,0 z"
         style="fill:#ffffff;fill-opacity:1;fill-rule:nonzero;stroke:none"
         id="path41790" />
    </g>
    <g
       id="g41792"
       transform="matrix(89.38148,0,0,-89.38148,1384.2915,148.85541)">
      <path
         inkscape:connector-curvature="0"
         d="M 0,0 C 0.123,0 0.219,0.111 0.219,0.248 0.219,0.381 0.123,0.491 0,0.491 -0.123,0.491 -0.224,0.381 -0.224,0.248 -0.224,0.111 -0.123,0 0,0"
         style="fill:#ffffff;fill-opacity:1;fill-rule:nonzero;stroke:none"
         id="path41794" />
    </g>
    <g
       id="g41796"
       transform="matrix(89.38148,0,0,-89.38148,1866.9064,367.68272)">
      <path
         inkscape:connector-curvature="0"
         d="m 0,0 c -0.213,0 -0.279,0.329 -0.279,1.058 0,0.727 0.066,1.057 0.279,1.057 0.215,0 0.285,-0.33 0.285,-1.057 C 0.285,0.329 0.215,0 0,0 m 0,2.246 c -0.392,0 -0.688,-0.483 -0.688,-1.188 0,-0.709 0.296,-1.189 0.688,-1.189 0.398,0 0.691,0.48 0.691,1.189 0,0.705 -0.293,1.188 -0.691,1.188"
         style="fill:#ffffff;fill-opacity:1;fill-rule:nonzero;stroke:none"
         id="path41798" />
    </g>
    <g
       id="g41800"
       transform="matrix(89.38148,0,0,-89.38148,1401.9261,347.25369)">
      <path
         inkscape:connector-curvature="0"
         d="m 0,0 0,1.975 -0.542,0 0,-0.07 c 0.134,0 0.148,-0.083 0.148,-0.263 l 0,-1.653 c -0.004,-0.176 -0.017,-0.231 -0.16,-0.231 l 0,-0.075 0.705,0 0,0.071 C 0.011,-0.246 0,-0.187 0,0"
         style="fill:#ffffff;fill-opacity:1;fill-rule:nonzero;stroke:none"
         id="path41802" />
    </g>
    <g
       id="g41804"
       transform="matrix(89.38148,0,0,-89.38148,1625.2096,209.77782)">
      <path
         inkscape:connector-curvature="0"
         d="m 0,0 c 0,-0.091 0.039,-0.188 0.123,-0.257 0.081,-0.075 0.174,-0.15 0.316,-0.26 0.316,-0.245 0.395,-0.467 0.395,-0.718 0,-0.385 -0.307,-0.649 -0.664,-0.649 -0.215,0 -0.331,0.036 -0.475,0.062 l 0,0.691 0.121,0 c 0.017,-0.31 0.065,-0.618 0.363,-0.618 0.18,0 0.307,0.137 0.307,0.351 0,0.132 -0.038,0.252 -0.133,0.348 -0.058,0.064 -0.199,0.195 -0.329,0.296 -0.273,0.208 -0.359,0.355 -0.359,0.632 0,0.341 0.254,0.588 0.601,0.588 0.189,0 0.311,-0.031 0.458,-0.066 l 0,-0.622 -0.12,0 C 0.578,0.073 0.504,0.331 0.269,0.331 0.099,0.331 0,0.2 0,0"
         style="fill:#ffffff;fill-opacity:1;fill-rule:nonzero;stroke:none"
         id="path41806" />
    </g>
    <g
       id="g41808"
       transform="matrix(89.38148,0,0,-89.38148,1562.7055,343.41386)">
      <path
         inkscape:connector-curvature="0"
         d="m 0,0 0,1.45 c 0,0.317 -0.133,0.525 -0.468,0.525 -0.138,0 -0.342,-0.076 -0.446,-0.151 l -0.01,0.108 -0.517,0 0,-0.07 c 0.14,0 0.157,-0.067 0.157,-0.263 l 0,-1.636 c 0,-0.171 0,-0.248 -0.145,-0.248 l 0,-0.075 0.686,0 0,0.071 c -0.12,0 -0.149,0.056 -0.149,0.243 l 0,1.541 c 0,0.153 0.111,0.298 0.283,0.298 0.158,0 0.216,-0.127 0.216,-0.314 l 0,-1.475 c 0,-0.283 0.038,-0.364 0.273,-0.364 l 0.295,0 0,0.075 C 0.038,-0.264 0,-0.168 0,0"
         style="fill:#ffffff;fill-opacity:1;fill-rule:nonzero;stroke:none"
         id="path41810" />
    </g>
    <g
       id="g41812"
       transform="matrix(89.38148,0,0,-89.38148,2070.9822,343.41386)">
      <path
         inkscape:connector-curvature="0"
         d="m 0,0 0,1.45 c 0,0.317 -0.131,0.525 -0.466,0.525 -0.139,0 -0.343,-0.076 -0.446,-0.151 l -0.009,0.108 -0.517,0 0,-0.07 c 0.139,0 0.154,-0.067 0.154,-0.263 l 0,-1.636 c 0,-0.171 0,-0.248 -0.145,-0.248 l 0,-0.075 0.686,0 0,0.071 c -0.118,0 -0.146,0.056 -0.147,0.243 l 0,1.541 c 0,0.153 0.109,0.298 0.284,0.298 0.155,0 0.214,-0.127 0.214,-0.314 l 0,-1.475 c 0,-0.283 0.037,-0.364 0.273,-0.364 l 0.294,0 0,0.075 C 0.039,-0.264 0,-0.168 0,0"
         style="fill:#ffffff;fill-opacity:1;fill-rule:nonzero;stroke:none"
         id="path41814" />
    </g>
    <g
       id="g41816"
       transform="matrix(89.38148,0,0,-89.38148,1754.1692,130.61443)">
      <path
         inkscape:connector-curvature="0"
         d="m 0,0 c -0.071,-0.277 -0.256,-0.47 -0.485,-0.519 l 0,-0.103 0.111,0 c 0.063,0 0.094,-0.024 0.094,-0.114 l 0,-1.498 c 0,-0.444 0.197,-0.505 0.489,-0.505 l 0.316,0 0,0.113 c -0.311,0 -0.41,0.108 -0.41,0.407 l 0,1.504 c 0,0.081 0.016,0.113 0.091,0.113 l 0.311,0 0,0.151 -0.311,0 c -0.083,0 -0.091,0.029 -0.091,0.133 l 0,0.356 -0.02,0 C 0.063,0.038 0.013,0.044 0,0"
         style="fill:#ffffff;fill-opacity:1;fill-rule:nonzero;stroke:none"
         id="path41818" />
    </g>
    <g
       id="g41820"
       transform="matrix(89.38148,0,0,-89.38148,2508.674,244.95837)">
      <path
         inkscape:connector-curvature="0"
         d="m 0,0 c -0.002,-0.016 -0.008,-0.016 -0.016,-0.01 -0.04,0.022 -0.147,-0.032 -0.225,-0.077 -0.089,-0.05 -0.187,-0.119 -0.268,-0.204 -0.016,-0.015 -0.027,-0.008 -0.027,-0.004 0,0.047 0.002,0.075 -0.013,0.075 -0.02,0 -0.132,-0.053 -0.144,-0.038 -0.018,0.022 0.035,0.096 0.019,0.112 -0.022,0.027 -0.16,-0.008 -0.16,-0.008 -0.02,0.091 0.067,0.336 0.144,0.33 0.075,-0.008 0.328,0 0.385,0.004 0.011,0.002 0.047,0.006 0.063,0.006 0.021,-0.004 0.04,-0.026 0.004,-0.034 -0.102,-0.015 -0.215,-0.063 -0.2,-0.075 0.038,-0.032 0.235,-0.057 0.26,0.029 0.001,0.006 0.001,0.04 0.004,0.04 0.061,0.012 0.169,0.016 0.173,-0.069 C 0,0.052 0.001,0.025 0,0 M 1.295,0.115 C 1.262,0.104 1.154,0.071 1.112,0.071 c -0.013,0 -0.014,0.012 -0.006,0.016 0.081,0.059 0.123,0.129 0.123,0.152 0,0.006 -0.004,0.012 -0.012,0.012 -0.076,0 -0.232,-0.228 -1.014,-0.23 -0.05,0 -0.097,0.002 -0.144,0.004 C 0.062,0.143 0.044,0.22 -0.173,0.212 -0.18,0.253 -0.297,0.245 -0.387,0.239 -0.654,0.22 -1.458,0.188 -2.117,1.148 -2.197,1.119 -2.113,0.919 -2.175,0.961 -2.232,1.002 -2.546,1.416 -2.607,1.771 -2.794,1.751 -2.663,1.222 -2.738,1.289 -2.881,1.422 -3.004,1.771 -3.014,1.771 -3.08,1.776 -3.121,1.634 -3.075,1.499 -3.034,1.377 -2.918,1.158 -3.004,1.231 -3.121,1.323 -3.198,1.426 -3.273,1.531 -3.394,1.703 -3.399,1.595 -3.383,1.499 -3.348,1.293 -3.032,1.04 -3.11,1.046 -3.17,1.048 -3.35,1.175 -3.447,1.262 -3.543,1.343 -3.565,1.295 -3.503,1.188 c 0.113,-0.192 0.417,-0.4 0.341,-0.404 -0.171,-0.01 -0.357,0.11 -0.359,0.058 0,0 0,-0.068 0.109,-0.156 0.05,-0.04 0.109,-0.079 0.185,-0.11 0.038,-0.015 0.038,-0.052 -0.013,-0.052 -0.012,0 -0.072,0.015 -0.079,0.015 -0.086,0 0.047,-0.141 0.098,-0.196 0.254,-0.287 1.054,-0.626 1.328,-0.499 0.027,0.01 0.041,-0.013 0.02,-0.029 -0.042,-0.031 -0.135,-0.053 -0.144,-0.055 -0.267,-0.073 -0.606,0.024 -0.656,-0.033 -0.03,-0.037 0.01,-0.06 0.046,-0.081 0.025,-0.016 0.027,-0.042 -0.028,-0.052 -0.154,-0.024 -0.204,-0.114 -0.091,-0.141 0.076,-0.017 0.056,-0.044 0.008,-0.059 -0.119,-0.041 -0.167,-0.165 0.042,-0.189 0.246,-0.031 0.15,-0.059 0.091,-0.095 -0.079,-0.049 0.005,-0.142 0.135,-0.11 0.131,0.037 0.178,0.041 0.152,-0.03 -0.024,-0.062 0.181,-0.099 0.308,-0.008 0.028,0.021 0.065,0.05 0.101,0.05 0.054,0 0.055,-0.054 0.138,-0.064 l 10e-4,0 c 0,0 0.09,-0.011 0.189,0.091 0.092,0.091 0.189,0.27 0.203,0.293 0.168,0.012 0.436,0.06 0.576,0.152 1.283,0.013 2.246,0.496 2.32,0.696 0.014,0.04 -0.2,-0.057 -0.223,-0.065"
         style="fill:#ffffff;fill-opacity:1;fill-rule:nonzero;stroke:none"
         id="path41822" />
    </g>
    <g
       id="g41824"
       transform="matrix(89.38148,0,0,-89.38148,2746.8399,256.64947)">
      <path
         inkscape:connector-curvature="0"
         d="m 0,0 0,2.262 c 0,0.287 -0.263,0.303 -0.263,0.303 l -0.372,0 -18.74,0 c 0,0 -0.263,-0.016 -0.263,-0.303 l 0,-2.082 c 0,-0.118 0.156,-2.149 2.671,-2.149 L 0,-1.969 0,0 z"
         style="fill:#003475;fill-opacity:1;fill-rule:nonzero;stroke:none"
         id="path41826" />
    </g>
    <g
       id="g41828"
       transform="matrix(89.38148,0,0,-89.38148,2723.3147,483.95015)">
      <path
         inkscape:connector-curvature="0"
         d="m 0,0 c 0,0 0.263,0.018 0.263,0.305 l 0,0.029 -16.852,0.004 c -1.611,0 -2.327,0.733 -2.645,1.332 C -18.979,1.014 -18.276,0 -16.359,0 L -0.034,0 0,0 z"
         style="fill:#d53845;fill-opacity:1;fill-rule:nonzero;stroke:none"
         id="path41830" />
    </g>
    <g
       id="g41832"
       transform="matrix(89.38148,0,0,-89.38148,1321.5807,86.710247)">
      <path
         inkscape:connector-curvature="0"
         d="M 0,0 -0.317,-2.139 -0.618,0 -0.913,0 -1.226,-2.139 c 0,0 -0.259,1.85 -0.276,1.947 C -1.52,-0.095 -1.538,0 -1.703,0 l -0.483,0 0,-0.063 c 0.163,0 0.251,-0.109 0.274,-0.295 l 0.41,-2.874 0.318,0 0.294,2.139 0.262,-2.139 0.335,0 0.423,2.864 c 0.046,0.218 0.099,0.305 0.267,0.305 L 0.397,0 0,0 z"
         style="fill:#ffffff;fill-opacity:1;fill-rule:nonzero;stroke:none"
         id="path41834" />
    </g>
    <g
       id="g41836"
       transform="matrix(89.38148,0,0,-89.38148,1384.2915,148.85541)">
      <path
         inkscape:connector-curvature="0"
         d="M 0,0 C 0.123,0 0.219,0.111 0.219,0.248 0.219,0.381 0.123,0.491 0,0.491 -0.123,0.491 -0.224,0.381 -0.224,0.248 -0.224,0.111 -0.123,0 0,0"
         style="fill:#ffffff;fill-opacity:1;fill-rule:nonzero;stroke:none"
         id="path41838" />
    </g>
    <g
       id="g41840"
       transform="matrix(89.38148,0,0,-89.38148,1866.9064,367.68272)">
      <path
         inkscape:connector-curvature="0"
         d="m 0,0 c -0.213,0 -0.279,0.329 -0.279,1.058 0,0.727 0.066,1.057 0.279,1.057 0.215,0 0.285,-0.33 0.285,-1.057 C 0.285,0.329 0.215,0 0,0 m 0,2.246 c -0.392,0 -0.688,-0.483 -0.688,-1.188 0,-0.709 0.296,-1.189 0.688,-1.189 0.398,0 0.691,0.48 0.691,1.189 0,0.705 -0.293,1.188 -0.691,1.188"
         style="fill:#ffffff;fill-opacity:1;fill-rule:nonzero;stroke:none"
         id="path41842" />
    </g>
    <g
       id="g41844"
       transform="matrix(89.38148,0,0,-89.38148,1401.9261,347.25369)">
      <path
         inkscape:connector-curvature="0"
         d="m 0,0 0,1.975 -0.542,0 0,-0.07 c 0.134,0 0.148,-0.083 0.148,-0.263 l 0,-1.653 c -0.004,-0.176 -0.017,-0.231 -0.16,-0.231 l 0,-0.075 0.705,0 0,0.071 C 0.011,-0.246 0,-0.187 0,0"
         style="fill:#ffffff;fill-opacity:1;fill-rule:nonzero;stroke:none"
         id="path41846" />
    </g>
    <g
       id="g41848"
       transform="matrix(89.38148,0,0,-89.38148,1625.2096,209.77782)">
      <path
         inkscape:connector-curvature="0"
         d="m 0,0 c 0,-0.091 0.039,-0.188 0.123,-0.257 0.081,-0.075 0.174,-0.15 0.316,-0.26 0.316,-0.245 0.395,-0.467 0.395,-0.718 0,-0.385 -0.307,-0.649 -0.664,-0.649 -0.215,0 -0.331,0.036 -0.475,0.062 l 0,0.691 0.121,0 c 0.017,-0.31 0.065,-0.618 0.363,-0.618 0.18,0 0.307,0.137 0.307,0.351 0,0.132 -0.038,0.252 -0.133,0.348 -0.058,0.064 -0.199,0.195 -0.329,0.296 -0.273,0.208 -0.359,0.355 -0.359,0.632 0,0.341 0.254,0.588 0.601,0.588 0.189,0 0.311,-0.031 0.458,-0.066 l 0,-0.622 -0.12,0 C 0.578,0.073 0.504,0.331 0.269,0.331 0.099,0.331 0,0.2 0,0"
         style="fill:#ffffff;fill-opacity:1;fill-rule:nonzero;stroke:none"
         id="path41850" />
    </g>
    <g
       id="g41852"
       transform="matrix(89.38148,0,0,-89.38148,1562.7055,343.41386)">
      <path
         inkscape:connector-curvature="0"
         d="m 0,0 0,1.45 c 0,0.317 -0.133,0.525 -0.468,0.525 -0.138,0 -0.342,-0.076 -0.446,-0.151 l -0.01,0.108 -0.517,0 0,-0.07 c 0.14,0 0.157,-0.067 0.157,-0.263 l 0,-1.636 c 0,-0.171 0,-0.248 -0.145,-0.248 l 0,-0.075 0.686,0 0,0.071 c -0.12,0 -0.149,0.056 -0.149,0.243 l 0,1.541 c 0,0.153 0.111,0.298 0.283,0.298 0.158,0 0.216,-0.127 0.216,-0.314 l 0,-1.475 c 0,-0.283 0.038,-0.364 0.273,-0.364 l 0.295,0 0,0.075 C 0.038,-0.264 0,-0.168 0,0"
         style="fill:#ffffff;fill-opacity:1;fill-rule:nonzero;stroke:none"
         id="path41854" />
    </g>
    <g
       id="g41856"
       transform="matrix(89.38148,0,0,-89.38148,2070.9822,343.41386)">
      <path
         inkscape:connector-curvature="0"
         d="m 0,0 0,1.45 c 0,0.317 -0.131,0.525 -0.466,0.525 -0.139,0 -0.343,-0.076 -0.446,-0.151 l -0.009,0.108 -0.517,0 0,-0.07 c 0.139,0 0.154,-0.067 0.154,-0.263 l 0,-1.636 c 0,-0.171 0,-0.248 -0.145,-0.248 l 0,-0.075 0.686,0 0,0.071 c -0.118,0 -0.146,0.056 -0.147,0.243 l 0,1.541 c 0,0.153 0.109,0.298 0.284,0.298 0.155,0 0.214,-0.127 0.214,-0.314 l 0,-1.475 c 0,-0.283 0.037,-0.364 0.273,-0.364 l 0.294,0 0,0.075 C 0.039,-0.264 0,-0.168 0,0"
         style="fill:#ffffff;fill-opacity:1;fill-rule:nonzero;stroke:none"
         id="path41858" />
    </g>
    <g
       id="g41860"
       transform="matrix(89.38148,0,0,-89.38148,1754.1692,130.61443)">
      <path
         inkscape:connector-curvature="0"
         d="m 0,0 c -0.071,-0.277 -0.256,-0.47 -0.485,-0.519 l 0,-0.103 0.111,0 c 0.063,0 0.094,-0.024 0.094,-0.114 l 0,-1.498 c 0,-0.444 0.197,-0.505 0.489,-0.505 l 0.316,0 0,0.113 c -0.311,0 -0.41,0.108 -0.41,0.407 l 0,1.504 c 0,0.081 0.016,0.113 0.091,0.113 l 0.311,0 0,0.151 -0.311,0 c -0.083,0 -0.091,0.029 -0.091,0.133 l 0,0.356 -0.02,0 C 0.063,0.038 0.013,0.044 0,0"
         style="fill:#ffffff;fill-opacity:1;fill-rule:nonzero;stroke:none"
         id="path41862" />
    </g>
    <g
       id="g41864"
       transform="matrix(89.38148,0,0,-89.38148,2508.674,244.95837)">
      <path
         inkscape:connector-curvature="0"
         d="m 0,0 c -0.002,-0.016 -0.008,-0.016 -0.016,-0.01 -0.04,0.022 -0.147,-0.032 -0.225,-0.077 -0.089,-0.05 -0.187,-0.119 -0.268,-0.204 -0.016,-0.015 -0.027,-0.008 -0.027,-0.004 0,0.047 0.002,0.075 -0.013,0.075 -0.02,0 -0.132,-0.053 -0.144,-0.038 -0.018,0.022 0.035,0.096 0.019,0.112 -0.022,0.027 -0.16,-0.008 -0.16,-0.008 -0.02,0.091 0.067,0.336 0.144,0.33 0.075,-0.008 0.328,0 0.385,0.004 0.011,0.002 0.047,0.006 0.063,0.006 0.021,-0.004 0.04,-0.026 0.004,-0.034 -0.102,-0.015 -0.215,-0.063 -0.2,-0.075 0.038,-0.032 0.235,-0.057 0.26,0.029 0.001,0.006 0.001,0.04 0.004,0.04 0.061,0.012 0.169,0.016 0.173,-0.069 C 0,0.052 0.001,0.025 0,0 M 1.295,0.115 C 1.262,0.104 1.154,0.071 1.112,0.071 c -0.013,0 -0.014,0.012 -0.006,0.016 0.081,0.059 0.123,0.129 0.123,0.152 0,0.006 -0.004,0.012 -0.012,0.012 -0.076,0 -0.232,-0.228 -1.014,-0.23 -0.05,0 -0.097,0.002 -0.144,0.004 C 0.062,0.143 0.044,0.22 -0.173,0.212 -0.18,0.253 -0.297,0.245 -0.387,0.239 -0.654,0.22 -1.458,0.188 -2.117,1.148 -2.197,1.119 -2.113,0.919 -2.175,0.961 -2.232,1.002 -2.546,1.416 -2.607,1.771 -2.794,1.751 -2.663,1.222 -2.738,1.289 -2.881,1.422 -3.004,1.771 -3.014,1.771 -3.08,1.776 -3.121,1.634 -3.075,1.499 -3.034,1.377 -2.918,1.158 -3.004,1.231 -3.121,1.323 -3.198,1.426 -3.273,1.531 -3.394,1.703 -3.399,1.595 -3.383,1.499 -3.348,1.293 -3.032,1.04 -3.11,1.046 -3.17,1.048 -3.35,1.175 -3.447,1.262 -3.543,1.343 -3.565,1.295 -3.503,1.188 c 0.113,-0.192 0.417,-0.4 0.341,-0.404 -0.171,-0.01 -0.357,0.11 -0.359,0.058 0,0 0,-0.068 0.109,-0.156 0.05,-0.04 0.109,-0.079 0.185,-0.11 0.038,-0.015 0.038,-0.052 -0.013,-0.052 -0.012,0 -0.072,0.015 -0.079,0.015 -0.086,0 0.047,-0.141 0.098,-0.196 0.254,-0.287 1.054,-0.626 1.328,-0.499 0.027,0.01 0.041,-0.013 0.02,-0.029 -0.042,-0.031 -0.135,-0.053 -0.144,-0.055 -0.267,-0.073 -0.606,0.024 -0.656,-0.033 -0.03,-0.037 0.01,-0.06 0.046,-0.081 0.025,-0.016 0.027,-0.042 -0.028,-0.052 -0.154,-0.024 -0.204,-0.114 -0.091,-0.141 0.076,-0.017 0.056,-0.044 0.008,-0.059 -0.119,-0.041 -0.167,-0.165 0.042,-0.189 0.246,-0.031 0.15,-0.059 0.091,-0.095 -0.079,-0.049 0.005,-0.142 0.135,-0.11 0.131,0.037 0.178,0.041 0.152,-0.03 -0.024,-0.062 0.181,-0.099 0.308,-0.008 0.028,0.021 0.065,0.05 0.101,0.05 0.054,0 0.055,-0.054 0.138,-0.064 l 10e-4,0 c 0,0 0.09,-0.011 0.189,0.091 0.092,0.091 0.189,0.27 0.203,0.293 0.168,0.012 0.436,0.06 0.576,0.152 1.283,0.013 2.246,0.496 2.32,0.696 0.014,0.04 -0.2,-0.057 -0.223,-0.065"
         style="fill:#ffffff;fill-opacity:1;fill-rule:nonzero;stroke:none"
         id="path41866" />
    </g>
  </g>
</svg>
